<svg width="38" height="39" viewBox="0 0 38 39" fill="none" xmlns="http://www.w3.org/2000/svg">
<path d="M15.2269 0.463867H0.12793V37.7966H22.7766V30.3302V22.8635H15.2269V30.3302H7.67758V22.8635V15.397V7.9304H15.2269V15.397H22.7766V7.9304V0.463867H15.2269Z" fill="white"/>
<path d="M26.6723 34.6392L26.4606 34.3457V32.9901L26.6723 34.6392ZM27.2167 36.8454L26.4606 36.5976V34.4996L26.708 34.8433L27.2167 36.8454ZM26.3704 32.9242V34.2209L25.6139 33.1717L24.3902 33.5725L25.1463 32.5237L24.3902 31.4747L25.6139 31.8754L26.3704 30.8266V32.1231V32.9242ZM26.3704 36.5681L24.3003 35.8904L23.5096 34.7938L24.3003 33.6973L25.5797 33.2786L26.3704 34.3751V36.5681ZM26.3704 37.4648L25.6739 37.6928L25.6139 37.7123L24.9549 36.7981L24.3902 36.0151L26.3704 36.6634V37.4648ZM24.5647 38.0557L23.4536 38.4193L22.1743 38.0007V36.6452L22.965 35.5488L24.2444 35.9676L24.6393 36.5148L25.524 37.7418L24.5647 38.0557ZM22.0841 36.6157L22.0133 36.7142L20.8048 38.3902L19.5254 36.6157V35.2606L20.8048 34.8414L22.0841 35.2606V36.6157ZM19.4355 35.1946V36.4909L18.6791 35.4423L17.4553 35.8426L18.2115 34.7938L17.4553 33.7452L18.6791 34.1457L19.4355 33.0968V34.3931L20.6593 34.7938L19.4355 35.1946ZM19.4355 38.0007L18.6383 38.2614L18.1558 38.4193L16.0857 37.7418L17.1391 36.2809L17.3651 35.9676L18.6445 35.5488L19.4355 36.6452V38.0007ZM15.9957 37.7123L15.2394 37.4648V36.6634L17.2196 36.0151L16.301 37.289L15.9957 37.7123ZM15.1494 34.3457L14.9376 34.6392L13.8699 36.1198L12.8023 34.6392L12.5903 34.3457V32.9901L13.8699 32.5712L14.0021 32.6145L15.1494 32.9901V34.3457ZM15.1494 36.5976L14.393 36.8454L13.9255 36.1968L14.4646 35.4493L15.1494 34.4996V36.5976ZM13.3469 36.8454L12.5903 36.5976V34.4996L12.838 34.8433L13.8144 36.1968L13.3469 36.8454ZM12.5005 32.9242V34.2209L11.7441 33.1717L10.5202 33.5725L11.2766 32.5237L10.5202 31.4747L11.7441 31.8754L12.5005 30.8266V32.1231L13.7243 32.5237L12.5005 32.9242ZM12.5005 36.5681L10.4301 35.8904L9.63958 34.7938L10.4301 33.6973L11.7097 33.2786L12.5005 34.3751V36.5681ZM12.5005 37.4648L11.7441 37.7123L11.0851 36.7981L10.5202 36.0151L12.5005 36.6634V37.4648ZM10.6948 38.0557L9.58386 38.4193L8.30441 38.0007V36.6452L9.09521 35.5488L10.3747 35.9676L10.7693 36.5148L11.6542 37.7418L10.6948 38.0557ZM8.21442 36.6157L8.1434 36.7142L6.93497 38.3902L5.6555 36.6157V35.2606L6.93497 34.8414L8.21442 35.2606V36.6157ZM5.56539 35.1946V36.4909L4.80913 35.4423L3.58516 35.8426L4.34165 34.7938L3.58516 33.7452L4.80913 34.1457L5.56539 33.0968V34.3931L6.78938 34.7938L6.56706 34.8668L5.56539 35.1946ZM5.56539 38.0007L4.28594 38.4193L3.17495 38.0557L2.21569 37.7418L3.10061 36.5148L3.49525 35.9676L4.7747 35.5488L5.56539 36.6452V38.0007ZM2.12581 37.7123L1.36945 37.4648V36.6634L3.34958 36.0151L2.96191 36.5528L2.12581 37.7123ZM0.14556 32.5237L1.36945 32.1231V30.8262L2.12581 31.8754L3.34958 31.4747L3.09763 31.8243L2.59332 32.5237L3.09593 33.2203L3.34958 33.5725L2.12581 33.1717L1.36945 34.2209V32.9242L0.14556 32.5237ZM1.03175 30.2039L0.0555663 28.8504L1.06924 27.4447L1.27945 27.1533V28.4496L2.50333 28.8504L1.27945 29.251V30.5475L1.03175 30.2039ZM0.14556 25.1773L0.37476 25.102L1.36945 24.7764V23.48L2.1201 24.5206L2.12581 24.5289L2.95447 24.2576C3.06917 24.2201 3.20009 24.177 3.34982 24.1281L2.59332 25.1773L3.34958 26.226L2.12581 25.8253L1.483 26.7167L1.36945 26.8743V25.5777L0.14556 25.1773ZM0.0555663 21.5038L0.523074 20.8555L1.27945 21.1033V23.201L0.0555663 21.5038ZM1.36945 21.1325L3.4397 21.8103L3.47515 21.8593L4.23037 22.9069L3.5202 23.8918L3.4397 24.0033C3.33242 24.0384 2.62032 24.2717 2.29325 24.3788L2.24819 24.3935C2.22977 24.3994 2.21317 24.4047 2.19854 24.4095L2.16012 24.4221L1.36945 23.3258V21.1325ZM1.36945 20.2358L2.12581 19.9883L2.62488 20.6803L3.34958 21.6855L1.36945 21.0372V20.2358ZM1.69262 19.2336L2.16012 18.5852L3.07855 18.8858L4.14038 19.2336L3.07855 19.581L2.16012 19.8818L1.69262 19.2336ZM1.36945 18.231V17.4298L1.96892 17.2334L3.34958 16.7816L2.12581 18.4787L1.36945 18.231ZM0.14556 13.2899L1.36945 12.8893V11.5927L2.12581 12.6415L3.34958 12.2413L2.59332 13.2899L2.97642 13.8214L3.34958 14.3387L2.12581 13.9385L1.36945 14.987V13.6907L0.14556 13.2899ZM0.0555663 9.61677L0.839404 8.52956L1.27945 7.91959V9.21593L2.50333 9.61677L1.27945 10.0173V11.3137L0.0555663 9.61677ZM0.14556 5.94338L1.36945 5.54253V4.2462L2.12581 5.29506L3.34982 4.89451L2.59332 5.94338L3.34958 6.99224L2.12581 6.5917L1.36945 7.64055V6.34394L0.14556 5.94338ZM0.0555663 2.26998L0.523074 1.62197L1.27945 1.86944V3.96717L0.0555663 2.26998ZM1.36945 1.89893L3.4397 2.57645L4.23037 3.67309L3.4397 4.76974L2.16012 5.18858L1.36945 4.09194V1.89893ZM1.36945 1.00226L2.12581 0.754795L2.62488 1.44676L3.34958 2.45198L1.36945 1.80366V1.00226ZM2.68973 0.569855L4.28606 0.047489L5.56539 0.466325V1.82165L4.7747 2.9183C4.58842 2.85754 3.62164 2.54076 3.49525 2.49947L2.21569 0.725298L2.68973 0.569855ZM5.65541 1.85115L6.93497 0.0769823L8.21442 1.85115V3.20677L6.93497 3.62531L5.65541 3.20677V1.85115ZM8.30441 3.27254V1.97591L9.06064 3.02507L9.53432 2.86993L10.2847 2.62423L9.52833 3.67309L10.2847 4.72196L9.06064 4.32141L8.30441 5.37028V4.07365L7.08053 3.67309L8.30441 3.27254ZM8.30441 0.466325L9.58386 0.047489L10.6948 0.411169L11.6542 0.725298L10.3747 2.49947C10.2483 2.54076 9.28159 2.85754 9.09521 2.9183L8.30441 1.82165V0.466325ZM11.7441 0.754795L12.5005 1.00226V1.80366L11.917 1.99449L10.5202 2.45198L11.7441 0.754795ZM12.5903 4.12143L13.8699 2.34727L15.1494 4.12143V5.47676L13.8699 5.89559L13.4017 5.74251L12.5903 5.47676V4.12143ZM12.5903 1.86944L13.3469 1.62197L13.8144 2.26998L13.0627 3.31236L12.5903 3.96717V1.86944ZM14.393 1.62197L15.1494 1.86944V3.96717L13.9255 2.26998L14.393 1.62197ZM15.2394 5.54253V4.2462L15.9957 5.29506L17.2196 4.89451L16.4631 5.94338L17.2196 6.99224L15.9957 6.5917L15.2394 7.64055V6.34394L14.0154 5.94338L15.2394 5.54253ZM15.2394 1.89893L17.3098 2.57645L18.1002 3.67309L17.3098 4.76974L16.0302 5.18858L15.2394 4.09194V1.89893ZM15.2394 1.00226L15.9957 0.754795L16.495 1.44705L17.2196 2.45198L15.2394 1.80366V1.00226ZM17.0449 0.411169L18.1558 0.047489L19.4355 0.466325V1.82195L18.6445 2.9183C18.4583 2.85754 17.4916 2.54076 17.3651 2.49947L16.0857 0.725298L17.0449 0.411169ZM19.5254 1.85115L20.8048 0.0769823L22.0841 1.85115V3.20677L20.8048 3.62531L19.5254 3.20677V1.85115ZM22.1743 3.27254V1.97591L22.9308 3.02507L23.1682 2.9472L24.1548 2.62423L23.3983 3.67309L24.1548 4.72196L22.9308 4.32141L22.1743 5.37028V4.07365L20.9502 3.67309L22.1743 3.27254ZM22.1743 0.466325L23.4536 0.047489L24.5348 0.401436L25.524 0.725298L24.2444 2.49947C24.1182 2.54076 23.1515 2.85754 22.965 2.9183L22.1743 1.82165V0.466325ZM25.6139 0.754795L26.3704 1.00226V1.80366L25.7869 1.99449L24.3899 2.45198L25.6139 0.754795ZM26.9328 3.31236L26.4606 3.96717V1.86944L27.2167 1.62197L26.9328 3.31236ZM26.4606 32.0571V30.7015L26.5335 30.6006L26.4606 32.0571ZM26.4606 30.5475V29.251L25.2365 28.8504L26.4606 28.4496V27.1533L26.737 27.5365L26.4606 30.5475ZM23.6097 30.3927L23.0209 29.5757L24.0099 29.2519L25.091 28.8979L26.3704 29.317V30.6723L25.5797 31.7689L24.3003 31.3501L23.6097 30.3927ZM22.965 34.0389L22.1743 32.9425V30.7495L23.5447 31.1979L24.2444 31.4271L25.0351 32.5237L24.2444 33.62L22.965 34.0389ZM19.5254 32.972L19.7374 32.6783L20.8048 31.1975L21.8728 32.6783L22.0841 32.972V34.3274L20.8048 34.7462L19.5254 34.3274V32.972ZM20.7494 31.1203L20.2102 31.8683L19.5254 32.8175V30.72L20.2818 30.4723L20.7494 31.1203ZM22.0841 30.7198V32.8175L21.8367 32.4741L20.8607 31.1203L21.3279 30.4723L22.0841 30.7198ZM18.7347 29.5281L19.2235 28.8504L18.7347 28.1725L19.5254 27.9137V27.0762L20.3161 27.3349L20.8048 26.6572L21.2936 27.3349L22.0844 27.0762V27.9137L22.8752 28.1725L22.3865 28.8504L22.8752 29.5281L22.0844 29.7868V30.6247L21.2936 30.3658L20.8048 31.0437L20.3161 30.3658L19.5254 30.6247V29.7868L18.7347 29.5281ZM17.4553 31.3023L18.1087 30.3959L18.6791 29.605L19.4355 29.8527V30.6539L17.4553 31.3023ZM16.5744 32.5237L17.3651 31.4271L19.4355 30.7495V32.9425L18.6445 34.0392L17.3651 33.62L16.5744 32.5237ZM15.2394 34.3751L15.2985 34.2929L16.0302 33.2786L17.1661 33.6505L17.3098 33.6973L18.1002 34.7938L17.3098 35.8904L15.2394 36.5681V34.3751ZM15.2394 32.1231V30.8262L15.3966 31.0445L15.99 31.8675L15.9957 31.8754L17.2196 31.4747L16.4631 32.5237L17.2196 33.5725L15.9957 33.1717L15.2394 34.2209V32.9242L14.0154 32.5237L15.2394 32.1231ZM12.5903 30.7015L12.91 30.2584L13.8699 28.9276L15.1494 30.7015V32.0571L13.8699 32.4759L12.5903 32.0571V30.7015ZM11.3667 28.8504L12.5903 28.4496V27.1533L13.8144 28.8504L13.2787 29.593L12.5903 30.5475V29.251L11.3667 28.8504ZM9.75228 30.4098L9.15074 29.5757L10.1397 29.2519L11.2209 28.8979L12.5005 29.317V30.6723L11.7097 31.7689L10.4301 31.3501L9.75228 30.4098ZM9.09521 34.0389L8.30441 32.9425V30.7495L10.3747 31.4271L11.1653 32.5237L10.3747 33.62L9.09521 34.0389ZM5.6555 32.972L6.00007 32.4942L6.93497 31.1975L7.93823 32.5889L8.21442 32.972V34.3274L6.93497 34.7462L6.57942 34.63L5.6555 34.3274V32.972ZM6.87926 31.1203L6.346 31.8601L5.6555 32.8175V30.72L6.41187 30.4723L6.87926 31.1203ZM8.21442 30.72V32.8178L7.91238 32.3986L6.99054 31.1203L7.45817 30.4723L8.21442 30.72ZM4.86472 29.5281L5.35349 28.8504L4.86472 28.1725L5.6555 27.9137V27.0762L6.44619 27.3349L6.93497 26.6572L7.42362 27.3349L8.21442 27.0762V27.9137L9.0052 28.1725L8.51644 28.8504L9.0052 29.5281L8.21442 29.7868V30.6247L7.42362 30.3658L6.93497 31.0437L6.44619 30.3658L5.6555 30.6247V29.7868L4.86472 29.5281ZM3.58516 31.3023L4.25016 30.3802L4.80913 29.605L5.56539 29.8527V30.6539L3.58516 31.3023ZM3.73005 29.2519L4.71902 29.5757L4.13007 30.3927L3.4397 31.3501L2.16012 31.7689L1.36945 30.6723V29.317L2.64889 28.8979L3.73005 29.2519ZM4.71902 28.1251L3.73005 28.4489L2.64889 28.8028L1.36945 28.3838V27.0284L2.16012 25.9319L3.33506 26.3164L3.4397 26.3508L4.71902 28.1251ZM5.24221 28.8504L4.7747 29.4986L3.85617 29.198L2.7946 28.8504L3.85617 28.5027L4.7747 28.2019L5.24221 28.8504ZM4.30995 27.4034L3.58516 26.3983L5.56539 27.0467V27.848L4.80913 28.0954L4.30995 27.4034ZM4.7747 23.6617L5.56539 24.7581V26.9513L3.49525 26.2736L2.70449 25.1773L3.49525 24.0805L4.7747 23.6617ZM4.80913 22.2586L5.56539 21.2098V22.5061L6.78938 22.9069L5.56539 23.3075V24.6041L4.80913 23.555L3.58516 23.9558L4.34165 22.9069L3.82166 22.1858L3.58516 21.8581L4.80913 22.2586ZM5.56539 19.7002V21.0555L4.7747 22.1519L3.49525 21.733L2.21569 19.9589L3.2049 19.635L4.28594 19.2813L5.56539 19.7002ZM3.49525 16.7341L4.7747 16.315L5.56539 17.4116V18.767L4.28594 19.186L3.2049 18.8318L2.21569 18.5083L3.49525 16.7341ZM4.23037 15.5601L3.4397 16.6568L1.36945 17.3346V15.1413L2.16012 14.0446L3.4397 14.4638L4.23037 15.5601ZM3.49525 12.1935L5.56539 11.5157V13.7087L4.7747 14.8053L3.49525 14.3865L3.23165 14.021L2.70449 13.2899L3.49525 12.1935ZM3.73005 10.0182L4.71902 10.3421L3.4397 12.1163L2.16012 12.5351L1.36945 11.4387V10.0831L2.64889 9.66426L3.73005 10.0182ZM4.71902 8.89147L3.73005 9.21504L2.64889 9.56899L1.36945 9.15015V7.79482L2.16012 6.69817L3.4397 7.11701L4.71902 8.89147ZM4.7747 4.42789L5.56539 5.52454V7.71784L3.49525 7.04003L2.70449 5.94338L3.49525 4.84673L4.7747 4.42789ZM8.21442 5.49504L6.93497 7.26951L5.65541 5.49504V4.13972L6.93497 3.72087L8.21442 4.13972V5.49504ZM6.99054 7.34649L7.77446 6.25958L8.21442 5.6493V7.74704L7.45793 7.9948L6.99054 7.34649ZM5.65541 7.74704V5.6493L6.87926 7.34649L6.41187 7.9948L5.65541 7.74704ZM9.00511 8.93895L8.51644 9.61677L9.00511 10.2943L8.21442 10.5533V11.391L7.42362 11.132L6.93497 11.8097L6.44619 11.132L5.65541 11.391V10.5533L4.86472 10.2943L5.35349 9.61677L4.86472 8.93895L5.65541 8.67999V7.84231L6.44619 8.10128L6.93497 7.42347L7.42362 8.10128L8.21442 7.84231V8.67999L9.00511 8.93895ZM8.90387 7.61667L10.2847 7.16479L9.06064 8.86197L8.30441 8.61421V7.81281L8.90387 7.61667ZM11.1653 5.94338L10.3747 7.04003L8.30441 7.71784V5.52454L9.09521 4.42789L10.3747 4.84673L11.1653 5.94338ZM12.5005 4.09194L11.7097 5.18858L10.4301 4.76974L9.63958 3.67309L10.4301 2.57645L12.5005 1.89893V4.09194ZM12.5005 6.34394V7.64055L11.7441 6.5917L10.5202 6.99224L11.2766 5.94338L10.5202 4.89451L11.7441 5.29506L12.5005 4.2462V5.54253L13.7243 5.94338L12.5005 6.34394ZM15.1494 7.76532L13.8699 9.53949L12.5903 7.76532V6.4097L13.8699 5.99087L15.1494 6.4097V7.76532ZM16.3732 9.61677L15.1494 10.0173V11.3137L13.9255 9.61677L14.7093 8.52956L15.1494 7.91959V9.21593L16.3732 9.61677ZM18.5891 8.89147L17.5999 9.21504L16.5188 9.56899L15.2394 9.15015V7.79482L16.0302 6.69817L17.3098 7.11701L18.5891 8.89147ZM18.6445 4.42789L19.4355 5.52454V7.71784L17.3651 7.04003L16.5744 5.94338L17.3651 4.84673L18.6445 4.42789ZM22.0841 5.49504L20.8048 7.26951L19.5254 5.49504V4.13972L20.8048 3.72087L21.0448 3.79934L22.0841 4.13972V5.49504ZM20.8607 7.34649L21.6444 6.25958L22.0841 5.6493V7.74704L21.3279 7.9948L20.8607 7.34649ZM19.5254 7.74704V5.6493L20.7494 7.34649L20.2818 7.9948L19.5254 7.74704ZM22.8752 8.93895L22.3865 9.61677L22.8752 10.2943L22.0841 10.5533V11.391L21.2936 11.132L20.8048 11.8097L20.3161 11.132L19.5254 11.391V10.5533L18.7347 10.2943L19.2235 9.61677L18.7347 8.93895L19.5254 8.67999V7.84231L20.3161 8.10128L20.8048 7.42347L21.2936 8.10128L22.0841 7.84231V8.67999L22.8752 8.93895ZM24.1548 7.16479L23.3655 8.25879L22.9308 8.86197L22.1743 8.61421V7.81281L24.1548 7.16479ZM25.0351 5.94338L24.2444 7.04003L23.1635 7.39397L22.1743 7.71784V5.52454L22.965 4.42789L24.2444 4.84673L25.0351 5.94338ZM26.3704 4.09194L25.5797 5.18858L24.3003 4.76974L23.5096 3.67309L24.3003 2.57645L26.3704 1.89893V4.09194ZM26.3704 6.34394V7.64055L25.6139 6.5917L24.3902 6.99224L25.1463 5.94338L24.3902 4.89451L25.6139 5.29506L26.3704 4.2462V5.54253V6.34394ZM26.3704 25.5777V26.8743L25.6139 25.8253L24.3902 26.226L25.1463 25.1773L24.3902 24.1281L25.6139 24.5289L26.3704 23.48V24.7764V25.5777ZM24.0099 28.4489L23.0209 28.1251L24.3003 26.3508L24.5251 26.2771L25.5797 25.9319L26.3704 27.0284V28.3838L25.091 28.8028L24.0099 28.4489ZM22.1743 27.0467L23.3438 26.6637L24.1548 26.3983L22.9308 28.0954L22.1743 27.848V27.0467ZM20.9502 22.9069L22.1743 22.5061V21.2098L22.9308 22.2586L24.1548 21.8581L23.3983 22.9069L24.1548 23.9558L22.9308 23.555L22.1743 24.6039V23.3075L20.9502 22.9069ZM19.5254 24.8828L20.7494 26.5801L20.2818 27.2284L19.5254 26.9807V24.8828ZM18.6791 23.555L17.4553 23.9558L18.2115 22.9069L17.4553 21.8581L18.6791 22.2586L18.6848 22.2504L19.4355 21.2098V22.5061L20.6593 22.9069L19.4355 23.3075V24.6041L18.6791 23.555ZM17.3651 26.2736L16.5744 25.1773L17.3651 24.0805L18.6445 23.6617L19.4355 24.7581V26.9513L17.3651 26.2736ZM18.1796 27.4029L17.4553 26.3983L19.4355 27.0467V27.848L18.6791 28.0957L18.1796 27.4029ZM17.7264 29.198L16.6646 28.8504L17.7264 28.5027L18.6445 28.2019L19.112 28.8504L18.6445 29.4986L17.7264 29.198ZM15.2394 29.317L16.5188 28.8979L17.5999 29.2519L18.5891 29.5757L17.9875 30.4098L17.3098 31.3501C17.2539 31.368 17.0361 31.4394 16.7931 31.5191L16.1668 31.7238C16.1069 31.7439 16.0589 31.7592 16.0302 31.7689L15.2394 30.6723V29.317ZM14.667 27.8221L15.1494 27.1533V28.4496L16.3732 28.8504L15.1494 29.251V30.5475L15.052 30.4127L13.9255 28.8504L14.667 27.8221ZM12.5903 25.6435L13.8699 25.2247L15.1494 25.6435V26.9989L13.8699 28.7731L12.5903 26.9989V25.6435ZM11.7441 25.8253L10.5202 26.226L11.2766 25.1773L10.5202 24.1281L11.7441 24.5289L12.5005 23.48V24.7764L13.7243 25.1773L12.5005 25.5777V26.8743L11.7441 25.8253ZM10.1397 28.4489L9.15074 28.1251L10.4301 26.3508L10.6215 26.288L11.7097 25.9319L12.2124 26.6291L12.5005 27.0284V28.3838L11.2209 28.8028L10.1397 28.4489ZM8.30441 27.0467L8.92436 26.8437L10.2847 26.3983L9.06093 28.0954L8.30441 27.848V27.0467ZM7.08053 22.9069L8.30441 22.5061V21.2098L8.36742 21.2971L9.06064 22.2586L10.2847 21.8581L9.52833 22.9069L10.2847 23.9558L9.06093 23.555L8.30441 24.6041V23.3075L7.08053 22.9069ZM5.6555 21.0847L6.40845 20.0405L6.93497 19.3105L8.21442 21.0847V22.4403L6.93497 22.8592L5.6555 22.4403V21.0847ZM8.21442 13.5839L6.99054 11.8867L7.45793 11.2385L8.21442 11.4863V13.5839ZM9.06064 14.9118L10.2847 14.5112L9.52833 15.5601L10.2847 16.609L9.06064 16.2085L8.30441 17.2574V15.961L7.08053 15.5601L8.30441 15.1596V13.863L9.06064 14.9118ZM10.3747 12.1935L11.1653 13.2899L10.3746 14.3865L9.09521 14.8053L8.30441 13.7087V11.5157L10.3747 12.1935ZM9.55981 11.0639L10.2847 12.0684L8.30441 11.4204V10.6191L9.06064 10.3716L9.55981 11.0639ZM10.032 9.27521L11.0754 9.61677L10.032 9.95836L9.09521 10.2648L8.62772 9.61677L9.09521 8.96846L10.032 9.27521ZM12.5005 9.15015L11.2209 9.56899L10.1657 9.22359L9.15074 8.89147L10.4301 7.11701L11.7097 6.69817L12.5005 7.79482V9.15015ZM13.0304 10.7036L12.5903 11.3137V10.0173L11.3667 9.61677L12.5903 9.21593V7.91959L13.8144 9.61677L13.0304 10.7036ZM15.1494 12.8236L13.8699 13.2423L12.5903 12.8236V11.4682L13.8699 9.69375L15.1494 11.4682V12.8236ZM15.9957 12.6415L17.2196 12.2413L16.4631 13.2899L17.2196 14.3387L15.9957 13.9385L15.2394 14.987V13.6907L14.0154 13.2899L15.2394 12.8893V11.5927L15.9957 12.6415ZM17.5999 10.0182L18.5891 10.3421L17.3098 12.1163L16.0302 12.5351L15.3384 11.5759L15.2394 11.4387V10.0831L16.5188 9.66426L17.5999 10.0182ZM19.4355 11.4204L18.8281 11.6193L17.4553 12.0684L18.6791 10.3716L19.4355 10.6191V11.4204ZM20.6593 15.5601L19.4355 15.961V17.2574L18.6791 16.2085L17.4553 16.6093L18.2115 15.5601L17.4553 14.5112L18.6791 14.9118L19.4355 13.863V15.1596L20.6593 15.5601ZM22.0841 13.5839L20.8607 11.8867L21.3279 11.2385L22.0841 11.4863V13.5839ZM22.9155 14.8911L22.9308 14.9118L23.1503 14.8402C23.1565 14.8381 23.1624 14.836 23.1685 14.834L24.1548 14.5112L23.3983 15.5601L24.1548 16.609L22.9308 16.2085L22.1743 17.2574V15.961L20.9502 15.5601L22.1743 15.1596V13.863L22.9155 14.8911ZM24.2444 12.1935L25.0351 13.2899L24.485 14.0532L24.2444 14.3865C24.1182 14.4278 23.1515 14.7443 22.965 14.8053L22.2732 13.8461L22.1743 13.7087V11.5157L24.2444 12.1935ZM23.232 10.7892L24.1548 12.0684L23.8272 11.9616L22.1743 11.4204V10.6191L22.9308 10.3716L23.232 10.7892ZM23.8837 9.26902L24.9456 9.61677L23.8837 9.96421L22.965 10.2648L22.4975 9.61677L22.965 8.96846L23.8837 9.26902ZM26.4606 11.3137V10.0173L25.2365 9.61677L26.4606 9.21593V7.91959L27.1937 8.9363L26.4606 11.3137ZM26.9006 22.5907L26.4606 23.201V21.1033L27.2167 20.8555L26.9006 22.5907ZM26.4606 21.0077V20.17L25.6696 19.9113L26.1581 19.2336L25.6696 18.5557L26.4606 18.297V17.4594V21.0077ZM25.7709 21.2333L24.3899 21.6855L25.6139 19.9883L26.3704 20.2358V21.0372L25.7709 21.2333ZM22.1743 19.7002L23.4536 19.2813L24.5348 19.635L25.524 19.9589L24.2444 21.733L22.965 22.1519L22.1743 21.0555V19.7002ZM25.524 18.5083L24.5348 18.8318L23.4536 19.186L22.1743 18.767V17.4116L22.965 16.315L24.2444 16.7341L25.524 18.5083ZM26.0469 19.2336L25.5797 19.8818L24.6613 19.581L23.5995 19.2336L24.6613 18.8858L25.5797 18.5852L26.0469 19.2336ZM25.1151 17.7865L24.3902 16.7816L26.3704 17.4298V18.231L25.6139 18.4787L25.1151 17.7865ZM25.5797 14.0446L26.3704 15.1413V17.3346L24.3003 16.6568L23.5096 15.5601L24.3003 14.4638L25.5797 14.0446ZM27.2167 17.6116L26.4606 17.3638V15.2661L27.2167 17.6116ZM24.3003 12.1163L23.0209 10.3421L24.0099 10.0182L25.091 9.66426L26.3704 10.0831V11.4384L25.5797 12.5351L24.3003 12.1163ZM26.3704 13.6907V14.987L25.6139 13.9385L24.3899 14.3387L25.1463 13.2899L24.3902 12.2413L25.6139 12.6415L26.3704 11.5929V12.8893V13.6907ZM20.8607 19.2336L21.6444 18.1463L22.0841 17.5363V18.833L23.3081 19.2336L22.0841 19.6341V20.9307L20.8607 19.2336ZM19.5254 21.0847L20.8048 19.3105L22.0841 21.0847V22.4403L20.8048 22.8592L19.5254 22.4403V21.0847ZM19.5254 17.3821V16.0268L20.8048 15.6079L22.0841 16.0268V17.3821L20.8048 19.1566L19.5254 17.3821ZM16.0856 19.9589L17.1008 19.6267L18.1558 19.2813L19.4355 19.7002V21.0555L18.6445 22.1519C18.4583 22.0911 17.4913 21.7743 17.3651 21.733L16.0856 19.9589ZM16.0302 24.4221L15.2394 23.3258V21.1325L17.3098 21.8103L18.1002 22.9069L17.3098 24.0033L16.0302 24.4221ZM12.5903 23.355L13.8699 21.5808L15.1494 23.355V24.7106L14.4577 24.9371L13.8699 25.1294L12.5903 24.7106V23.355ZM12.5903 21.1033L13.3469 20.8555L13.8144 21.5038L13.0304 22.5907L12.5903 23.201V21.1033ZM15.1494 21.1033V23.201L13.9255 21.5038L14.067 21.3077L14.393 20.8555L15.1494 21.1033ZM15.8389 17.2334L17.2196 16.7816L15.9957 18.4787L15.2394 18.231V17.4298L15.8389 17.2334ZM17.1008 18.8403L16.0856 18.5083L17.3651 16.7341L18.6445 16.315L19.4355 17.4116V18.767L18.1558 19.186L17.1008 18.8403ZM16.4947 20.6803L17.2196 21.6855L15.2394 21.0372V20.2358L15.9957 19.9883L16.4947 20.6803ZM15.5626 19.2336L16.0301 18.5852L16.9672 18.892L18.0104 19.2336L16.9672 19.5751L16.0301 19.8818L15.5626 19.2336ZM16.5744 13.2899L17.3651 12.1935L19.4355 11.5157V13.7087L18.6445 14.8053L17.3651 14.3865L16.5744 13.2899ZM18.1002 15.5601L17.3098 16.6568L15.2394 17.3346V15.1413L16.0301 14.0446L17.3098 14.4638L18.1002 15.5601ZM11.7996 19.9113L12.2883 19.2336L11.7996 18.5557L12.5903 18.297V17.4594L13.3811 17.7181L13.8699 17.0402L14.3586 17.7181L15.0218 17.501L15.1494 17.4594V18.297L15.9401 18.5557L15.4514 19.2336L15.9401 19.9113L15.1494 20.17V21.0077L15.0218 20.9661L14.3587 20.749L13.8699 21.4266L13.3811 20.749L12.5903 21.0077V20.17L11.7996 19.9113ZM11.901 21.2333L10.5202 21.6855L11.7441 19.9883L12.5005 20.2358V21.0372L11.901 21.2333ZM8.30441 19.7002L9.58386 19.2813L10.665 19.635L11.6542 19.9589L10.3746 21.733L10.1386 21.8103L9.09521 22.1519L8.30441 21.0555V19.7002ZM11.6542 18.5083L10.665 18.8318L9.58386 19.186L8.30441 18.767V17.4116L9.09521 16.315L10.3747 16.7341L11.6542 18.5083ZM12.1771 19.2336L11.7097 19.8818L10.7913 19.581L9.72949 19.2336L10.7913 18.8858L11.7097 18.5852L12.1771 19.2336ZM11.2449 17.7865L10.5202 16.7816L12.5005 17.4298V18.231L11.7441 18.4787L11.2449 17.7865ZM11.7097 14.0446L12.5005 15.1413V17.3346L10.4301 16.6568L9.63958 15.5601L10.4301 14.4638L11.7097 14.0446ZM13.8144 16.9632L13.3469 17.6116L12.5903 17.3638V15.2661L13.8144 16.9632ZM15.1494 15.2661V17.3638L14.393 17.6116L14.067 17.1595L13.9255 16.9632L14.7093 15.8763L15.1494 15.2661ZM13.8699 16.8862L12.5903 15.1118V13.7565L13.8699 13.3376L15.1494 13.7565V15.1118L13.8699 16.8862ZM10.4301 12.1163L9.15074 10.3421L10.1657 10.0096L11.2209 9.66426L12.5005 10.0831V11.4387L11.7097 12.5351L10.4301 12.1163ZM11.7441 12.6415L12.5005 11.5927V12.8893L13.7243 13.2899L12.5005 13.6907V14.987L11.7441 13.9385L10.5202 14.3387L11.2766 13.2899L10.5202 12.2413L11.7441 12.6415ZM6.93497 19.1566L5.6555 17.3821V16.0268L6.46677 15.7611L6.93497 15.6079L8.21442 16.0268V17.3821L6.93497 19.1566ZM8.21442 17.5363V18.833L9.43823 19.2336L8.21442 19.6341V20.9307L6.99054 19.2336L8.21442 17.5363ZM11.1653 25.1773L10.3747 26.2736L8.30441 26.9513V24.7581L9.09521 23.6617L10.3747 24.0805L11.1653 25.1773ZM9.63958 22.9069L10.4301 21.8103L12.5005 21.1325V23.3258L11.7097 24.4221L10.4301 24.0033L9.63958 22.9069ZM17.3098 26.3508L18.5891 28.1251L17.5999 28.4489L16.5188 28.8028L15.2394 28.3838V27.0284L16.0302 25.9319L17.1181 26.288L17.3098 26.3508ZM15.9957 25.8253L15.2394 26.8743V25.5777L14.0154 25.1773L14.2025 25.1159L15.2394 24.7764V23.48L15.3022 23.567L15.9957 24.5289L17.2196 24.1281L16.4631 25.1773L17.2196 26.226L15.9957 25.8253ZM18.3014 19.2336L19.5254 18.833V17.5363L20.2585 18.5528L20.7494 19.2336L19.9654 20.3205L19.5254 20.9307V19.6341L18.3014 19.2336ZM25.0351 25.1773L24.2444 26.2736L23.3313 26.5725L22.1743 26.9513V24.7581L22.965 23.6617L24.2444 24.0805L25.0351 25.1773ZM23.5096 22.9069L24.3003 21.8103L26.3704 21.1325V23.3258L25.5797 24.4221L24.3003 24.0033L23.5096 22.9069ZM26.3704 7.79482V9.15015L25.091 9.56899L24.0099 9.21504L23.0209 8.89147L24.3003 7.11701L25.5797 6.69817L26.3704 7.79482ZM19.5254 13.5839V11.4863L20.2818 11.2385L20.7494 11.8867L19.9976 12.9292L19.5254 13.5839ZM20.8048 11.9641L22.0841 13.7382V15.0935L20.8048 15.5127L19.5254 15.0935V13.7382L20.8048 11.9641ZM18.1799 8.16972L17.4553 7.16479L19.4355 7.81281V8.61421L18.6791 8.86197L18.1799 8.16972ZM19.112 9.61677L18.6445 10.2648L17.7264 9.96421L16.6646 9.61677L17.7264 9.26902L18.6445 8.96846L19.112 9.61677ZM5.65541 13.5839V11.4863L6.41187 11.2385L6.87926 11.8867L6.09534 12.974L5.65541 13.5839ZM6.93497 11.9641L8.21442 13.7382V15.0935L6.93497 15.5127L5.65541 15.0935V13.7382L6.93497 11.9641ZM4.80913 10.3716L5.56539 10.6191V11.4204L4.94547 11.6233L3.58516 12.0684L4.80913 10.3716ZM4.30995 8.16972L3.58516 7.16479L5.56539 7.81281V8.61421L4.80913 8.86197L4.30995 8.16972ZM5.24221 9.61677L4.7747 10.2648L3.85617 9.96421L2.7946 9.61677L3.85617 9.26902L4.7747 8.96846L5.24221 9.61677ZM6.78938 15.5601L5.56539 15.961V17.2574L4.80913 16.2085L3.58516 16.6093L4.34165 15.5601L3.58516 14.5112L4.80913 14.9118L5.56539 13.863V15.1596L6.78938 15.5601ZM4.43165 19.2336L5.65541 18.833V17.5363L6.87926 19.2336L5.65541 20.9307V19.6341L4.43165 19.2336ZM6.87926 26.5801L6.41187 27.2284L5.6555 26.9807V24.8828L6.87926 26.5801ZM8.21442 24.8828V26.9807L7.45817 27.2284L6.99054 26.5801L7.76179 25.5106L8.21442 24.8828ZM6.93497 26.503L5.6555 24.7286V23.3732L6.93497 22.9545L8.21442 23.3732V24.7286L6.93497 26.503ZM9.42007 30.1032L10.2847 31.3023L8.30441 30.6539V29.8527L9.06093 29.605L9.42007 30.1032ZM8.62772 28.8504L9.09521 28.2019L10.0136 28.5027L11.0754 28.8504L10.0136 29.198L9.09521 29.4986L8.62772 28.8504ZM22.0841 24.8828V26.9807L21.3279 27.2284L20.8607 26.5801L21.6315 25.5106L22.0841 24.8828ZM20.8048 26.503L19.5254 24.7286V23.3732L20.8048 22.9545L22.0844 23.3732V24.7286L20.8048 26.503ZM23.3002 30.1172L24.1548 31.3023L22.1743 30.6539V29.8527L22.9308 29.605L23.3002 30.1172ZM22.4975 28.8504L22.965 28.2019L23.8837 28.5027L24.9456 28.8504L23.8837 29.198L22.965 29.4986L22.4975 28.8504ZM20.2415 3.53653L20.6593 3.67309L19.4355 4.07365V5.37028L18.6791 4.32141L17.4553 4.72196L18.2115 3.67309L17.4553 2.62423L18.068 2.82479L18.6791 3.02507L19.4355 1.97591V3.27254L20.2415 3.53653ZM6.78938 3.67309L5.56539 4.07365V5.37028L4.80913 4.32141L3.58516 4.72196L4.34165 3.67309L3.58516 2.62423L4.14562 2.80769L4.80913 3.02507L5.56539 1.97591V3.27254L6.78938 3.67309ZM4.23037 34.7938L3.4397 35.8904L1.36945 36.5681V34.3751L2.16012 33.2786L3.4397 33.6973L4.23037 34.7938ZM2.70449 32.5237L3.49525 31.4271L5.56539 30.7495V32.9422L4.7747 34.0392L3.49525 33.62L2.70449 32.5237ZM7.20692 34.8352L7.08053 34.7938L8.30441 34.3931V33.0968L8.42061 33.2579L9.06064 34.1457L9.84605 33.8885L10.2847 33.7452L9.52833 34.7938L10.2847 35.8426L9.06064 35.4423L8.30441 36.4909V35.1946L7.20692 34.8352ZM20.9502 34.7938L22.1743 34.3931V33.0968L22.9308 34.1457L24.1548 33.7452L23.3983 34.7938L24.1548 35.8426L22.9308 35.4423L22.1743 36.4909V35.1946L20.9502 34.7938ZM1.27945 36.5976L0.523074 36.8454L0.0555663 36.1968L0.594653 35.4493L1.27945 34.4996V36.5976ZM1.27945 17.3638L0.523074 17.6116L0.0555663 16.9632L0.839404 15.8763L1.27945 15.2661V17.3638ZM26.4606 1.77416V0.936489L25.6696 0.677516L25.8056 0.488741L26.1581 0H26.0469L25.5797 0.648019L24.6613 0.347456L23.5995 0H23.3081L22.0841 0.400551V1.69718L20.8607 0H20.7494L20.3993 0.484908L19.5254 1.69718V0.400551L18.3014 0H18.0104L16.9266 0.35483L16.0302 0.648019L15.5626 0H15.4514L15.9401 0.677516L15.1494 0.936489V1.77416L14.3587 1.51519L13.8699 2.193L13.3811 1.51519L12.5903 1.77416V0.936489L11.7996 0.677516L12.2883 0H12.1771L11.7097 0.648019L10.8132 0.35483L9.72949 0H9.43823L8.21442 0.400551V1.69718L7.938 1.31374L6.99054 0H6.87926L6.34155 0.745649L5.65541 1.69718V0.400551L4.43165 0H4.14038L2.16012 0.648019L1.69262 0H1.58146L2.07025 0.677516L1.27945 0.936489V1.77416L0.488647 1.51519L0 2.193V2.34727L1.27945 4.12143V5.47676L0 5.89559V5.99087L1.27945 6.4097V7.76532L0 9.53949V9.69375L1.27945 11.4682V12.8236L0 13.2423V13.3376L1.27945 13.7565V15.1118L0 16.8862V17.0402L0.488647 17.7181L1.27945 17.4594V18.297L1.93151 18.5103L2.07025 18.5557L1.58146 19.2336L2.07025 19.9113L1.27945 20.17V21.0077L0.488647 20.749L0 21.4266V21.5808L1.27945 23.355V24.7106L0 25.1294V25.2247L1.27945 25.6435V26.9989L1.14507 27.1854L0 28.7731V28.9276L1.08113 30.4269L1.27945 30.7015V32.0571L0 32.4759V32.5712L0.132181 32.6145L1.27945 32.9901V34.3457L1.06754 34.6392L0 36.1198V36.274L0.488647 36.9519L1.27945 36.6929V37.5307L2.07025 37.7895L1.58146 38.4673H1.69262L2.16012 37.8188L3.10907 38.1294L4.14038 38.4673H4.43165L5.65541 38.0665V36.7702L6.87926 38.4673H6.99054L8.21442 36.7702V38.0665L9.43823 38.4673H9.72949L10.761 38.1294L11.7097 37.8188L12.1771 38.4673H12.2883L11.7998 37.7895L12.5903 37.5307V36.6929L13.3811 36.9519L13.8699 36.274L14.3587 36.9519L15.1494 36.6929V37.5307L15.9401 37.7895L15.4514 38.4673H15.5626L16.0302 37.8188L17.5739 38.3244L18.0104 38.4673H18.3014L19.5254 38.0665V36.7702L19.6226 36.9046L20.7494 38.4673H20.8607L22.0841 36.7702V38.0665L23.3081 38.4673H23.5995L24.6308 38.1294L25.5797 37.8188L26.0469 38.4673H26.1581L25.6696 37.7895L26.4606 37.5307V36.6929" fill="#FAF3E4"/>
<path d="M30.3257 7.93262V15.3971H22.7764V22.8636H30.3257V30.3304H37.8751V22.8636V15.3991V15.3971V7.93262H30.3257Z" fill="#FFA800"/>
</svg>
